{
	"asset":{
		"version":"2.0",
		"generator":"Created using the official Cinema 4D glTF Exporter 1.000x290161"
	},
	"scenes":[{
		"nodes":[0,
		1,
		2,
		3,
		4,
		5,
		6]
	}],
	"nodes":[{
		"name":"02camera1",
		"translation":[3.289,
		1.368,
		-5.124],
		"rotation":[0,
		0,
		0,
		-1],
		"scale":[1,
		1,
		1],
		"mesh":0
	},
	{
		"name":"02camera2",
		"translation":[5.645,
		1.368,
		-4.289],
		"rotation":[0,
		0,
		0,
		-1],
		"scale":[1,
		1,
		1],
		"mesh":1
	},
	{
		"name":"02camera3",
		"translation":[4.269,
		1.368,
		-2.279],
		"rotation":[0,
		0,
		0,
		-1],
		"scale":[1,
		1,
		1],
		"mesh":2
	},
	{
		"name":"ground",
		"translation":[-3.707,
		-0.517,
		2.912],
		"rotation":[0,
		0,
		0,
		-1],
		"scale":[1,
		1,
		1],
		"mesh":3
	},
	{
		"name":"wall",
		"translation":[3.707,
		0.517,
		-2.912],
		"rotation":[0,
		0,
		0,
		-1],
		"scale":[1,
		1,
		1],
		"mesh":4
	},
	{
		"name":"door",
		"translation":[-3.707,
		-0.517,
		2.912],
		"rotation":[0,
		0,
		0,
		-1],
		"scale":[1,
		1,
		1],
		"mesh":5
	},
	{
		"name":"menkuang",
		"translation":[-3.657,
		-0.517,
		2.912],
		"rotation":[0,
		0,
		0,
		-1],
		"scale":[1,
		1,
		1],
		"mesh":6
	}],
	"meshes":[{
		"primitives":[{
			"attributes":{
				"POSITION":1,
				"NORMAL":2,
				"TEXCOORD_0":3
			},
			"indices":0,
			"material":0
		}]
	},
	{
		"primitives":[{
			"attributes":{
				"POSITION":5,
				"NORMAL":6,
				"TEXCOORD_0":7
			},
			"indices":4,
			"material":0
		}]
	},
	{
		"primitives":[{
			"attributes":{
				"POSITION":9,
				"NORMAL":10,
				"TEXCOORD_0":11
			},
			"indices":8,
			"material":0
		}]
	},
	{
		"primitives":[{
			"attributes":{
				"POSITION":13,
				"NORMAL":14,
				"TEXCOORD_0":15
			},
			"indices":12,
			"material":1
		}]
	},
	{
		"primitives":[{
			"attributes":{
				"POSITION":17,
				"NORMAL":18,
				"TEXCOORD_0":19
			},
			"indices":16,
			"material":2
		}]
	},
	{
		"primitives":[{
			"attributes":{
				"POSITION":21,
				"NORMAL":22,
				"TEXCOORD_0":23
			},
			"indices":20,
			"material":3
		}]
	},
	{
		"primitives":[{
			"attributes":{
				"POSITION":25,
				"NORMAL":26,
				"TEXCOORD_0":27
			},
			"indices":24,
			"material":4
		}]
	}],
	"accessors":[{
		"bufferView":0,
		"type":"SCALAR",
		"componentType":5123,
		"count":1932,
		"byteOffset":0,
		"min":[0],
		"max":[559]
	},
	{
		"bufferView":1,
		"type":"VEC3",
		"componentType":5126,
		"count":560,
		"byteOffset":0,
		"min":[-0.302,
		-0.18,
		-0.302],
		"max":[0.302,
		0.18,
		0.302]
	},
	{
		"bufferView":1,
		"type":"VEC3",
		"componentType":5126,
		"count":560,
		"byteOffset":12,
		"min":[-1,
		-1,
		-1],
		"max":[1,
		1,
		1]
	},
	{
		"bufferView":1,
		"type":"VEC2",
		"componentType":5126,
		"count":560,
		"byteOffset":24,
		"min":[0,
		0],
		"max":[1,
		0.5]
	},
	{
		"bufferView":2,
		"type":"SCALAR",
		"componentType":5123,
		"count":1932,
		"byteOffset":0,
		"min":[0],
		"max":[559]
	},
	{
		"bufferView":3,
		"type":"VEC3",
		"componentType":5126,
		"count":560,
		"byteOffset":0,
		"min":[-0.302,
		-0.18,
		-0.302],
		"max":[0.302,
		0.18,
		0.302]
	},
	{
		"bufferView":3,
		"type":"VEC3",
		"componentType":5126,
		"count":560,
		"byteOffset":12,
		"min":[-1,
		-1,
		-1],
		"max":[1,
		1,
		1]
	},
	{
		"bufferView":3,
		"type":"VEC2",
		"componentType":5126,
		"count":560,
		"byteOffset":24,
		"min":[0,
		0],
		"max":[1,
		0.5]
	},
	{
		"bufferView":4,
		"type":"SCALAR",
		"componentType":5123,
		"count":1932,
		"byteOffset":0,
		"min":[0],
		"max":[559]
	},
	{
		"bufferView":5,
		"type":"VEC3",
		"componentType":5126,
		"count":560,
		"byteOffset":0,
		"min":[-0.302,
		-0.18,
		-0.302],
		"max":[0.302,
		0.18,
		0.302]
	},
	{
		"bufferView":5,
		"type":"VEC3",
		"componentType":5126,
		"count":560,
		"byteOffset":12,
		"min":[-1,
		-1,
		-1],
		"max":[1,
		1,
		1]
	},
	{
		"bufferView":5,
		"type":"VEC2",
		"componentType":5126,
		"count":560,
		"byteOffset":24,
		"min":[0,
		0],
		"max":[1,
		0.5]
	},
	{
		"bufferView":6,
		"type":"SCALAR",
		"componentType":5123,
		"count":108,
		"byteOffset":0,
		"min":[0],
		"max":[59]
	},
	{
		"bufferView":7,
		"type":"VEC3",
		"componentType":5126,
		"count":60,
		"byteOffset":0,
		"min":[4.939,
		-0.09,
		-9.524],
		"max":[9.889,
		0,
		-2.124]
	},
	{
		"bufferView":7,
		"type":"VEC3",
		"componentType":5126,
		"count":60,
		"byteOffset":12,
		"min":[-1,
		-1,
		-1],
		"max":[1,
		1,
		1]
	},
	{
		"bufferView":7,
		"type":"VEC2",
		"componentType":5126,
		"count":60,
		"byteOffset":24,
		"min":[-291.339,
		-290.339],
		"max":[291.339,
		1]
	},
	{
		"bufferView":8,
		"type":"SCALAR",
		"componentType":5123,
		"count":684,
		"byteOffset":0,
		"min":[0],
		"max":[339]
	},
	{
		"bufferView":9,
		"type":"VEC3",
		"componentType":5126,
		"count":340,
		"byteOffset":0,
		"min":[-2.475,
		-1.035,
		-3.7],
		"max":[2.475,
		1.035,
		3.7]
	},
	{
		"bufferView":9,
		"type":"VEC3",
		"componentType":5126,
		"count":340,
		"byteOffset":12,
		"min":[-1,
		-1,
		-1],
		"max":[1,
		1,
		1]
	},
	{
		"bufferView":9,
		"type":"VEC2",
		"componentType":5126,
		"count":340,
		"byteOffset":24,
		"min":[-291.339,
		-290.339],
		"max":[291.339,
		1]
	},
	{
		"bufferView":10,
		"type":"SCALAR",
		"componentType":5123,
		"count":96,
		"byteOffset":0,
		"min":[0],
		"max":[47]
	},
	{
		"bufferView":11,
		"type":"VEC3",
		"componentType":5126,
		"count":48,
		"byteOffset":0,
		"min":[9.689,
		0,
		-7.224],
		"max":[9.889,
		1.81,
		-6.024]
	},
	{
		"bufferView":11,
		"type":"VEC3",
		"componentType":5126,
		"count":48,
		"byteOffset":12,
		"min":[-1,
		-1,
		-1],
		"max":[1,
		1,
		1]
	},
	{
		"bufferView":11,
		"type":"VEC2",
		"componentType":5126,
		"count":48,
		"byteOffset":24,
		"min":[-47.244,
		-70.26],
		"max":[47.244,
		1]
	},
	{
		"bufferView":12,
		"type":"SCALAR",
		"componentType":5123,
		"count":36,
		"byteOffset":0,
		"min":[0],
		"max":[23]
	},
	{
		"bufferView":13,
		"type":"VEC3",
		"componentType":5126,
		"count":24,
		"byteOffset":0,
		"min":[9.769,
		0.034,
		-7.19],
		"max":[9.799,
		1.776,
		-6.058]
	},
	{
		"bufferView":13,
		"type":"VEC3",
		"componentType":5126,
		"count":24,
		"byteOffset":12,
		"min":[-1,
		-1,
		-1],
		"max":[1,
		1,
		1]
	},
	{
		"bufferView":13,
		"type":"VEC2",
		"componentType":5126,
		"count":24,
		"byteOffset":24,
		"min":[-44.58,
		-67.595],
		"max":[44.58,
		1]
	}],
	"bufferViews":[{
		"buffer":0,
		"byteOffset":0,
		"byteLength":3864,
		"target":34963
	},
	{
		"buffer":0,
		"byteOffset":3864,
		"byteLength":17920,
		"target":34962,
		"byteStride":32
	},
	{
		"buffer":1,
		"byteOffset":0,
		"byteLength":3864,
		"target":34963
	},
	{
		"buffer":1,
		"byteOffset":3864,
		"byteLength":17920,
		"target":34962,
		"byteStride":32
	},
	{
		"buffer":2,
		"byteOffset":0,
		"byteLength":3864,
		"target":34963
	},
	{
		"buffer":2,
		"byteOffset":3864,
		"byteLength":17920,
		"target":34962,
		"byteStride":32
	},
	{
		"buffer":3,
		"byteOffset":0,
		"byteLength":216,
		"target":34963
	},
	{
		"buffer":3,
		"byteOffset":216,
		"byteLength":1920,
		"target":34962,
		"byteStride":32
	},
	{
		"buffer":4,
		"byteOffset":0,
		"byteLength":1368,
		"target":34963
	},
	{
		"buffer":4,
		"byteOffset":1368,
		"byteLength":10880,
		"target":34962,
		"byteStride":32
	},
	{
		"buffer":5,
		"byteOffset":0,
		"byteLength":192,
		"target":34963
	},
	{
		"buffer":5,
		"byteOffset":192,
		"byteLength":1536,
		"target":34962,
		"byteStride":32
	},
	{
		"buffer":6,
		"byteOffset":0,
		"byteLength":72,
		"target":34963
	},
	{
		"buffer":6,
		"byteOffset":72,
		"byteLength":768,
		"target":34962,
		"byteStride":32
	}],
	"buffers":[{
		"uri":"data:application/octet-stream;base64,",
		"byteLength":21784
	},
	{
		"uri":"data:application/octet-stream;base64,",
		"byteLength":21784
	},
	{
		"uri":"data:application/octet-stream;base64,",
		"byteLength":21784
	},
	{
		"uri":"data:application/octet-stream;base64,",
		"byteLength":2136
	},
	{
		"uri":"data:application/octet-stream;base64,",
		"byteLength":12248
	},
	{
		"uri":"data:application/octet-stream;base64,",
		"byteLength":1728
	},
	{
		"uri":"data:application/octet-stream;base64,",
		"byteLength":840
	}],
	"materials":[{
		"pbrMetallicRoughness":{
			"baseColorFactor":[0.129,
			0.19,
			0.188,
			1],
			"metallicFactor":0,
			"roughnessFactor":0.5
		},
		"emissiveFactor":[0,
		0,
		0],
		"alphaMode":"OPAQUE",
		"doubleSided":true,
		"name":""
	},
	{
		"pbrMetallicRoughness":{
			"baseColorFactor":[0.378,
			0.44,
			0.277,
			1],
			"metallicFactor":0,
			"roughnessFactor":0.5
		},
		"emissiveFactor":[0,
		0,
		0],
		"alphaMode":"OPAQUE",
		"doubleSided":true,
		"name":""
	},
	{
		"pbrMetallicRoughness":{
			"baseColorFactor":[0.8,
			0.8,
			0.8,
			1],
			"metallicFactor":0,
			"roughnessFactor":0.5
		},
		"emissiveFactor":[0,
		0,
		0],
		"alphaMode":"OPAQUE",
		"doubleSided":true,
		"name":""
	},
	{
		"pbrMetallicRoughness":{
			"baseColorFactor":[0.35,
			0.243,
			0.028,
			1],
			"metallicFactor":0,
			"roughnessFactor":0.5
		},
		"emissiveFactor":[0,
		0,
		0],
		"alphaMode":"OPAQUE",
		"doubleSided":true,
		"name":"me"
	},
	{
		"pbrMetallicRoughness":{
			"baseColorFactor":[0.8,
			0.64,
			0.32,
			1],
			"metallicFactor":0,
			"roughnessFactor":0.5
		},
		"emissiveFactor":[0,
		0,
		0],
		"alphaMode":"OPAQUE",
		"doubleSided":true,
		"name":""
	}]
}